<?xml version="1.0"?>
<svg xmlns="http://www.w3.org/2000/svg" xmlns:xlink="http://www.w3.org/1999/xlink" version="1.1" id="Capa_1" x="0px" y="0px" viewBox="0 0 470 470" style="enable-background:new 0 0 470 470;" xml:space="preserve" width="512px" height="512px" class=""><g transform="matrix(1 1.22465e-16 -1.22465e-16 1 0 -2.84217e-14)"><g>
	<path d="M420.917,55.97l-80.13-15.386V7.5c0-4.142-3.358-7.5-7.5-7.5H136.713c-4.142,0-7.5,3.358-7.5,7.5v33.084L49.083,55.97   c-16.894,3.244-30.637,19.877-30.637,37.079V437.5c0,17.92,14.58,32.5,32.5,32.5h368.108c17.92,0,32.5-14.58,32.5-32.5V93.049   C451.554,75.848,437.811,59.214,420.917,55.97z M144.213,15h181.573v28.823l-44.296,47.407l-11.74-18.13   c-0.013-0.02-7.29-11.258-7.29-11.258l38.301-21.622c3.607-2.037,4.88-6.611,2.844-10.218c-2.037-3.607-6.612-4.88-10.218-2.844   l-45.241,25.54c-1.801,1.017-3.102,2.732-3.596,4.74c-0.494,2.009-0.136,4.132,0.988,5.868l7.539,11.642L235,86.653l-18.077-11.706   l7.539-11.642c1.124-1.736,1.481-3.859,0.988-5.868c-0.494-2.008-1.795-3.724-3.596-4.74l-45.241-25.54   c-3.606-2.037-8.182-0.763-10.218,2.844c-2.036,3.607-0.763,8.182,2.844,10.218l38.301,21.622L200.3,73.021   c-0.015,0.023-0.033,0.043-0.048,0.066c-0.015,0.023-0.026,0.047-0.041,0.071l-11.702,18.071l-44.296-47.407V15z M242.5,311.394   h54.685v64.303H242.5V311.394z M312.185,311.394h54.685v64.303h-54.685V311.394z M312.185,296.394v-64.303h54.685v64.303H312.185z    M297.185,296.394H242.5v-64.303h54.685V296.394z M242.5,217.091v-64.303h54.685v64.303H242.5z M33.446,437.5V93.049   c0-10.192,8.456-20.426,18.465-22.349l82.149-15.773l50.045,53.56c1.576,1.687,3.842,2.552,6.142,2.35   c2.3-0.204,4.378-1.456,5.633-3.394l12.89-19.905l18.73,12.129V455H50.946C41.296,455,33.446,447.149,33.446,437.5z M436.554,437.5   c0,9.649-7.851,17.5-17.5,17.5H242.5v-64.303h54.685V432.5c0,4.142,3.358,7.5,7.5,7.5s7.5-3.358,7.5-7.5v-41.803h54.685V432.5   c0,4.142,3.358,7.5,7.5,7.5s7.5-3.358,7.5-7.5v-41.803h32.185c4.142,0,7.5-3.358,7.5-7.5s-3.358-7.5-7.5-7.5H381.87v-64.303h32.185   c4.142,0,7.5-3.358,7.5-7.5s-3.358-7.5-7.5-7.5H381.87v-64.303h32.185c4.142,0,7.5-3.358,7.5-7.5s-3.358-7.5-7.5-7.5H381.87   v-21.803c0-4.142-3.358-7.5-7.5-7.5s-7.5,3.358-7.5,7.5v21.803h-54.685v-64.303h54.685v12.5c0,4.142,3.358,7.5,7.5,7.5   s7.5-3.358,7.5-7.5v-12.5h32.185c4.142,0,7.5-3.358,7.5-7.5s-3.358-7.5-7.5-7.5H381.87v-52.6c0-4.142-3.358-7.5-7.5-7.5   s-7.5,3.358-7.5,7.5v52.6h-54.685v-16.454c0-4.142-3.358-7.5-7.5-7.5s-7.5,3.358-7.5,7.5v16.454H242.5V99.667l18.73-12.129   l12.89,19.905c1.255,1.938,3.333,3.19,5.633,3.394c0.221,0.02,0.442,0.029,0.663,0.029c2.067,0,4.055-0.855,5.479-2.379   l50.045-53.56l82.149,15.773c10.009,1.922,18.465,12.157,18.465,22.349V437.5z" data-original="#000000" class="active-path" data-old_color="#000000" fill="#B01B1B"/>
	<path d="M269.842,414.849c-4.411,0-8,3.589-8,8s3.589,8,8,8s8-3.589,8-8S274.253,414.849,269.842,414.849z" data-original="#000000" class="active-path" data-old_color="#000000" fill="#B01B1B"/>
	<path d="M269.842,335.545c-4.411,0-8,3.589-8,8s3.589,8,8,8s8-3.589,8-8S274.253,335.545,269.842,335.545z" data-original="#000000" class="active-path" data-old_color="#000000" fill="#B01B1B"/>
	<path d="M269.842,272.242c4.411,0,8-3.589,8-8s-3.589-8-8-8s-8,3.589-8,8S265.431,272.242,269.842,272.242z" data-original="#000000" class="active-path" data-old_color="#000000" fill="#B01B1B"/>
	<path d="M269.842,176.939c-4.411,0-8,3.589-8,8s3.589,8,8,8s8-3.589,8-8S274.253,176.939,269.842,176.939z" data-original="#000000" class="active-path" data-old_color="#000000" fill="#B01B1B"/>
	<path d="M205,232.091c4.142,0,7.5-3.358,7.5-7.5s-3.358-7.5-7.5-7.5h-32.185v-64.303H205c4.142,0,7.5-3.358,7.5-7.5   s-3.358-7.5-7.5-7.5h-32.185v-16.454c0-4.142-3.358-7.5-7.5-7.5s-7.5,3.358-7.5,7.5v16.454h-54.768L103.13,85.2   c0.006-4.142-3.346-7.505-7.488-7.512c-4.148,0-7.505,3.35-7.512,7.488l-0.083,52.611H55.946c-4.142,0-7.5,3.358-7.5,7.5   s3.358,7.5,7.5,7.5h32.077l-0.102,64.303H55.946c-4.142,0-7.5,3.358-7.5,7.5s3.358,7.5,7.5,7.5h31.952l-0.102,64.303h-31.85   c-4.142,0-7.5,3.358-7.5,7.5s3.358,7.5,7.5,7.5h31.826l-0.022,14.107c-0.006,4.142,3.346,7.505,7.488,7.512   c4.148,0,7.505-3.35,7.512-7.488l0.022-14.13h55.044v64.303H102.85l-0.1-20.221c-0.021-4.142-3.347-7.475-7.537-7.463   c-4.142,0.021-7.483,3.395-7.463,7.537l0.1,20.147H55.946c-4.142,0-7.5,3.358-7.5,7.5s3.358,7.5,7.5,7.5h31.978l0.207,41.84   c0.021,4.129,3.375,7.463,7.499,7.463c4.18-0.021,7.521-3.395,7.501-7.537l-0.207-41.766h54.892V432.5c0,4.142,3.358,7.5,7.5,7.5   s7.5-3.358,7.5-7.5v-41.803H205c4.142,0,7.5-3.358,7.5-7.5s-3.358-7.5-7.5-7.5h-32.185v-64.303H205c4.142,0,7.5-3.358,7.5-7.5   s-3.358-7.5-7.5-7.5h-32.185v-64.303H205z M103.023,152.788h54.792v64.303h-54.894L103.023,152.788z M157.815,296.394h-55.02   l0.102-64.303h54.918V296.394z" data-original="#000000" class="active-path" data-old_color="#000000" fill="#B01B1B"/>
</g></g> </svg>


